<?xml version="1.0" encoding="UTF-8" standalone="no"?>
<!-- Created with Inkscape (http://www.inkscape.org/) -->

<svg
   xmlns:dc="http://purl.org/dc/elements/1.1/"
   xmlns:cc="http://creativecommons.org/ns#"
   xmlns:rdf="http://www.w3.org/1999/02/22-rdf-syntax-ns#"
   xmlns:svg="http://www.w3.org/2000/svg"
   xmlns="http://www.w3.org/2000/svg"
   xmlns:sodipodi="http://sodipodi.sourceforge.net/DTD/sodipodi-0.dtd"
   xmlns:inkscape="http://www.inkscape.org/namespaces/inkscape"
   width="210mm"
   height="297mm"
   viewBox="0 0 210 297"
   version="1.1"
   id="svg8"
   inkscape:version="0.92.5 (2060ec1f9f, 2020-04-08)"
   sodipodi:docname="logo_handstyle.svg">
  <defs
     id="defs2" />
  <sodipodi:namedview
     id="base"
     pagecolor="#ffffff"
     bordercolor="#666666"
     borderopacity="1.0"
     inkscape:pageopacity="0.0"
     inkscape:pageshadow="2"
     inkscape:zoom="0.7"
     inkscape:cx="421.66053"
     inkscape:cy="497.80904"
     inkscape:document-units="mm"
     inkscape:current-layer="layer1"
     showgrid="false"
     inkscape:window-width="1920"
     inkscape:window-height="1017"
     inkscape:window-x="1912"
     inkscape:window-y="-8"
     inkscape:window-maximized="1" />
  <metadata
     id="metadata5">
    <rdf:RDF>
      <cc:Work
         rdf:about="">
        <dc:format>image/svg+xml</dc:format>
        <dc:type
           rdf:resource="http://purl.org/dc/dcmitype/StillImage" />
        <dc:title></dc:title>
      </cc:Work>
    </rdf:RDF>
  </metadata>
  <g
     inkscape:label="Layer 1"
     inkscape:groupmode="layer"
     id="layer1">
    <path
       style="fill:#000000;fill-opacity:1;stroke-width:0.22434236"
       id="path14"
       d="m 72.366976,142.55203 c 0.398199,-0.8767 0.711093,-1.80135 1.000367,-2.72368 0.326831,-1.04721 0.547482,-2.12233 0.728938,-3.20492 0.17974,-1.3045 0.272426,-2.63044 0.178831,-3.94579 -0.138207,-1.62471 -0.623916,-3.18151 -1.155603,-4.70808 -0.672827,-1.79148 -1.572367,-3.4822 -2.555457,-5.1111 -1.070298,-1.70881 -2.344454,-3.25823 -3.741177,-4.69084 -1.451045,-1.47982 -3.179463,-2.60718 -4.914325,-3.69587 -1.858735,-1.12154 -3.871057,-1.95256 -5.936647,-2.57004 -2.197555,-0.72905 -4.476838,-1.14931 -6.757787,-1.48875 -2.394546,-0.2995 -4.809732,-0.34116 -7.218723,-0.38257 -2.676709,0.004 -5.321008,0.47698 -7.908017,1.14882 -2.131434,0.55153 -4.212913,1.33478 -6.205967,2.28778 -1.193599,0.57075 -1.80971,0.94393 -2.960055,1.5932 -5.497194,3.32865 2.435485,-1.48202 9.153713,-5.38017 0.449688,-0.26093 -0.87391,0.566 -1.303311,0.86085 -1.273642,0.87458 -2.447361,1.83493 -3.613362,2.85314 -1.936523,1.81981 -3.66424,3.88113 -5.092033,6.1468 -0.299555,0.47535 -0.570292,0.96924 -0.855435,1.45386 -1.15175,2.08824 -2.092206,4.29629 -2.827321,6.57443 -0.268153,0.83101 -0.827854,2.83975 -1.058699,3.65565 -0.689865,2.55761 -1.158104,5.17881 -1.434257,7.81744 -0.15684,1.49857 -0.19828,2.56285 -0.28268,4.06746 -0.155015,2.79967 -0.0089,5.62295 0.411196,8.39436 0.249291,1.64464 0.478986,2.48906 0.854555,4.1018 0.793413,3.07316 1.866179,6.07056 3.353185,8.86363 0.254213,0.4775 0.53794,0.93774 0.806911,1.40659 1.136329,2.00955 2.580015,3.80657 4.376798,5.22765 0.293816,0.23238 0.609608,0.43379 0.914412,0.65069 1.757583,1.11922 3.726775,1.79304 5.732356,2.25528 2.267807,0.53191 4.597942,0.61723 6.91289,0.70202 2.636032,0.13866 5.260546,-0.23426 7.853283,-0.68223 2.869499,-0.51832 5.712676,-1.19211 8.54569,-1.88986 0.460433,-0.11958 0.920866,-0.23905 1.381299,-0.35858 0,0 -11.22723,8.81378 -11.22723,8.81378 v 0 c -0.449005,0.10638 -0.89801,0.21278 -1.347015,0.31919 -2.863635,0.67497 -5.72917,1.35383 -8.632877,1.82477 -2.694271,0.41281 -5.405087,0.72049 -8.134118,0.54385 -2.407975,-0.094 -4.816249,-0.29595 -7.163244,-0.89224 -2.137849,-0.59619 -4.265399,-1.33381 -6.020961,-2.77462 -0.803226,-0.67931 -1.121902,-0.90958 -1.853028,-1.69172 -1.3553,-1.44987 -2.531133,-3.11001 -3.433498,-4.89157 -0.259174,-0.50506 -0.530861,-1.00355 -0.777533,-1.51521 -1.4209621,-2.94742 -2.4777155,-6.08174 -3.2804062,-9.26141 -0.1592403,-0.69749 -0.3328345,-1.39169 -0.4777254,-2.09248 -0.7296352,-3.52907 -1.1297863,-7.12666 -1.005368,-10.73833 0.094462,-2.06389 0.1843744,-4.13504 0.4252513,-6.18799 0.1682359,-1.43391 0.3760072,-2.55311 0.6656395,-3.96572 0.1347953,-0.65744 0.2865867,-1.31107 0.4298788,-1.96662 0.8828316,-3.59706 1.879007,-7.18855 3.576243,-10.48389 0.269033,-0.50825 0.52442,-1.02437 0.807098,-1.52472 1.336309,-2.36529 2.997273,-4.51756 4.867773,-6.45889 1.006508,-0.96781 1.225968,-1.21976 2.309464,-2.09798 0.566735,-0.45937 1.949173,-1.49758 2.567524,-1.87324 10.956207,-6.65612 9.105765,-5.59428 14.737466,-8.77768 0.492276,-0.2541 0.9791,-0.5197 1.476829,-0.76231 2.583625,-1.25938 5.300667,-2.20159 8.063702,-2.94591 2.696924,-0.56899 5.426341,-1.02754 8.191001,-0.92807 2.465313,0.0377 4.936413,0.10873 7.375808,0.51414 2.342835,0.39337 4.678772,0.86497 6.934668,1.64051 0.555313,0.19721 1.65861,0.58225 2.197819,0.80177 1.377693,0.56088 2.699239,1.27027 3.971659,2.04735 1.819768,1.17923 3.62784,2.40021 5.151046,3.97874 1.408454,1.56392 2.781748,3.16162 3.918473,4.95163 1.025931,1.71841 1.965708,3.49543 2.749601,5.34479 0.584837,1.61378 1.216978,3.22398 1.443495,4.94357 0.03983,0.26014 0.09278,0.5185 0.119537,0.78042 0.117645,1.15149 -0.02601,2.31256 -0.05624,3.46395 -0.106398,1.13891 -0.266369,2.2848 -0.584003,3.38299 -0.129414,0.51894 -0.258494,1.04972 -0.41576,1.56023 -0.08637,0.28035 -0.220623,0.51661 -0.286972,0.8036 -0.02809,0.12153 -0.03125,0.24764 -0.04691,0.37145 0,0 -13.620655,6.5149 -13.620655,6.5149 z"
       inkscape:connector-curvature="0" />
    <path
       style="fill:#000000;fill-opacity:1;stroke-width:0.2378744"
       id="path24"
       d="m 119.79969,107.45119 c -0.91854,0.71098 -1.62783,1.61768 -2.40923,2.4511 -1.08974,1.11979 -2.07234,2.32013 -3.09091,3.49401 -1.5284,1.77745 -2.86665,3.68676 -4.21292,5.58341 -1.8721,2.58534 -3.55623,5.27594 -5.10609,8.03547 -1.99744,3.51535 -3.96296,7.04627 -5.825176,10.62455 -2.24511,4.26351 -4.357982,8.58507 -6.500816,12.89297 -1.180276,2.28088 -2.238716,4.61467 -3.416411,6.89654 -0.451767,0.87535 -0.935022,1.73655 -1.393867,2.60875 -0.76917,1.46207 -2.012594,3.89753 -2.766341,5.36804 -0.446585,0.86825 -0.879797,1.74249 -1.339762,2.60477 -5.297963,9.93179 2.175988,-4.28652 -2.98309,5.47973 -0.957007,1.81164 -1.578927,3.09393 -2.55745,4.88211 -0.431454,0.78846 -0.885111,1.56636 -1.327669,2.34956 -1.959334,3.45425 -3.884835,6.92459 -5.700543,10.44549 -0.917511,1.82896 -1.817007,3.66907 -2.580948,5.55818 -0.342421,0.91801 -0.653111,1.84787 -0.90415,2.79104 -0.06501,0.18206 -0.150524,1.07088 -0.223572,0.33638 0.474823,-0.41283 1.103977,-0.60355 1.687454,-0.84778 1.284607,-0.47819 2.499184,-1.10321 3.783805,-1.57999 1.821962,-0.83102 3.696517,-1.55264 5.550326,-2.32012 2.585271,-1.0232 5.131242,-2.12692 7.689917,-3.20535 3.339595,-1.39783 6.728783,-2.6915 10.115729,-3.98741 3.827024,-1.54296 7.754724,-2.8475 11.695494,-4.11603 4.15235,-1.27312 8.30867,-2.53514 12.46019,-3.81058 4.35448,-1.28019 8.70998,-2.56107 13.03196,-3.93276 2.82121,-0.88509 5.6273,-1.80688 8.43455,-2.7281 1.01859,-0.4077 2.0762,-0.74324 3.0817,-1.17941 0.65595,-0.31501 0.33418,-0.17092 0.96364,-0.43538 0,0 -13.04539,9.54261 -13.04539,9.54261 v 0 c -1.21942,0.47502 -2.48758,0.84249 -3.73958,1.23534 -2.64033,0.81333 -5.3056,1.55544 -7.9513,2.35364 -4.30313,1.24015 -8.62119,2.44057 -12.8738,3.82464 -4.16702,1.27177 -8.33519,2.54121 -12.484878,3.86051 -3.967743,1.29944 -7.894955,2.69782 -11.751385,4.25982 -3.446007,1.33569 -6.88271,2.69402 -10.264615,4.16413 -2.653969,1.14059 -5.295288,2.30617 -7.97436,3.39636 -1.932444,0.80467 -3.841162,1.65384 -5.767584,2.47029 -1.320581,0.59491 -2.649444,1.18249 -4.032592,1.64414 -1.013265,0.2855 -1.803283,0.48335 -2.732389,-0.1287 -0.716611,-0.70715 -0.923572,-1.16896 -0.706287,-2.12539 0.257146,-1.07346 0.710331,-2.09258 1.128689,-3.11904 0.860053,-2.04649 1.983452,-3.98333 3.05694,-5.93899 0.579622,-0.97548 1.139753,-1.96084 1.72583,-2.93301 1.589616,-2.63687 3.266739,-5.22853 4.822356,-7.88306 1.408218,-2.43498 2.832631,-4.86249 4.188561,-7.32293 1.529381,-2.77517 1.415721,-2.6353 2.886472,-5.4218 0.460553,-0.87258 0.927462,-1.74228 1.391189,-2.61341 1.026234,-2.00888 1.69498,-3.28666 2.667348,-5.3139 0.399733,-0.83339 0.767625,-1.67963 1.169668,-2.51206 1.109328,-2.2969 2.295747,-4.5629 3.381147,-6.87005 2.055789,-4.28378 4.152487,-8.55101 6.253949,-12.81557 1.773339,-3.52834 3.55234,-7.05366 5.465408,-10.51955 1.475558,-2.73247 2.959996,-5.45842 4.721097,-8.04709 1.294708,-1.84937 2.511334,-3.74445 3.840852,-5.57331 0.950834,-1.15707 1.859834,-2.34473 2.870764,-3.45802 0.71035,-0.8213 1.51211,-1.57829 2.10145,-2.48446 0,0 15.49662,-5.93033 15.49662,-5.93033 z"
       inkscape:connector-curvature="0" />
    <path
       style="fill:#000000;fill-opacity:1;stroke-width:0.18780178"
       id="path26"
       d="m 57.32801,145.99194 c -0.09737,0.68791 0.0921,1.36059 0.275646,2.00698 0.293303,0.77045 0.723618,1.44851 1.164951,2.11329 0.648481,0.92125 1.425519,1.69735 2.216697,2.4509 1.07513,1.01147 2.269835,1.82639 3.493306,2.57447 1.596591,1.05713 3.308226,1.83249 5.057486,2.48104 2.147519,0.81627 4.374768,1.31124 6.589826,1.81726 0.408965,0.0864 0.817735,0.17388 1.226894,0.25899 1.173411,0.2441 1.659371,0.35411 2.863428,0.53179 1.592843,0.23503 3.197929,0.35535 4.796503,0.52656 3.640727,0.26124 7.289162,0.37274 10.936642,0.38074 3.32668,0.0319 6.651331,-0.15284 9.972641,-0.34854 2.59494,-0.15008 5.18697,-0.35955 7.7764,-0.60382 1.79241,-0.1566 3.57819,-0.39195 5.37247,-0.52105 0.67593,-0.0434 1.35166,-0.0906 2.0278,-0.1297 0,0 -9.5059,7.95653 -9.5059,7.95653 v 0 c -0.60337,-0.0142 -1.2071,-0.0245 -1.81038,0.002 -1.68858,0.0739 -3.37494,0.19475 -5.06266,0.28931 -2.53887,0.16345 -5.076979,0.34217 -7.619445,0.41917 -3.248633,0.0749 -6.496994,0.18789 -9.746701,0.09 -3.684984,-0.0722 -7.371982,-0.0645 -11.049738,-0.38232 -0.599411,-0.0366 -1.199573,-0.0596 -1.798236,-0.10984 -1.579872,-0.13252 -3.155924,-0.37532 -4.72751,-0.59771 -0.502564,-0.0711 -1.006806,-0.12838 -1.50747,-0.21535 -0.416957,-0.0725 -0.829496,-0.17513 -1.244245,-0.2627 -2.291953,-0.50616 -4.594277,-0.99954 -6.815577,-1.83993 -0.426137,-0.1685 -1.536407,-0.6022 -1.95201,-0.78814 -1.144141,-0.51185 -2.246152,-1.14597 -3.349029,-1.76213 -1.301902,-0.78104 -2.559736,-1.65289 -3.71268,-2.70326 -0.894332,-0.7804 -1.739056,-1.62601 -2.459006,-2.6216 -0.559509,-0.74815 -1.054393,-1.56275 -1.434293,-2.44952 -0.268668,-0.76543 -0.419041,-1.56119 -0.574519,-2.36511 0,0 10.598709,-6.19873 10.598709,-6.19873 z"
       inkscape:connector-curvature="0" />
    <path
       style="fill:#000000;fill-opacity:1;stroke-width:0.0954307"
       id="path42"
       d="m 165.71247,135.21868 c 0.0596,-0.069 0.12945,-0.12873 0.17892,-0.20692 0.0682,-0.10793 0.11019,-0.23377 0.17143,-0.34676 0.26305,-0.48545 0.55668,-0.95976 0.84329,-1.42851 0.42042,-0.77788 0.82514,-1.56633 1.20316,-2.37059 0.45933,-0.96431 0.7691,-1.99235 1.06234,-3.02872 0.29684,-1.06585 0.53283,-2.14776 0.65225,-3.25549 0.11321,-1.11834 0.0975,-2.24434 0.11992,-3.36739 0.0123,-1.11902 -0.17021,-2.21822 -0.44208,-3.29098 -0.24737,-1.12849 -0.64831,-2.19661 -1.19733,-3.18411 -0.44206,-0.83393 -1.0132,-1.56719 -1.57869,-2.29879 -0.54659,-0.7464 -1.12973,-1.44486 -1.79872,-2.05788 -0.69861,-0.68691 -1.53735,-1.16167 -2.34416,-1.67122 -0.63346,-0.26023 -1.2295,-0.62233 -1.86445,-0.87859 -0.10865,-0.0438 -0.88512,-0.30428 -0.98848,-0.33919 -1.08887,-0.35592 -2.19629,-0.6479 -3.32153,-0.81992 -1.37087,-0.12464 -2.74305,-0.24304 -4.11718,-0.31958 -1.72882,-0.1081 -3.45822,-0.10837 -5.18822,-0.0544 -2.15738,0.0234 -4.30531,0.36427 -6.43126,0.74924 -2.54605,0.42381 -5.06082,1.03513 -7.57129,1.66002 -2.3531,0.59468 -4.67901,1.33799 -6.94366,2.26249 -0.94042,0.36277 -1.84301,0.82692 -2.71386,1.35949 -0.25167,0.15393 -0.99579,0.63709 -0.74634,0.47876 9.58287,-6.08281 12.59594,-8.15934 8.92247,-5.63958 -0.96266,0.63765 -1.6749,1.55331 -2.26106,2.59423 -0.51416,0.98935 -0.71875,2.10341 -0.83981,3.22292 -0.1752,1.47771 -0.0904,2.95207 0.0683,4.42428 0.25587,2.02557 0.97975,3.91854 1.79654,5.73574 0.90296,1.99258 1.9939,3.88019 3.25914,5.61545 0.2892,0.39662 0.59523,0.77784 0.89286,1.16677 2.30395,3.19602 5.29139,5.63178 8.27991,7.98034 3.348,2.51565 6.92618,4.62318 10.52329,6.66241 3.42648,1.98862 6.87988,3.92952 10.42604,5.64664 2.02922,0.9826 4.37978,1.99557 6.43994,2.90255 0.9941,0.41015 1.99315,0.80587 2.98229,1.23047 0.97212,0.41731 1.93109,0.87139 2.90098,1.29503 2.99732,1.30919 2.49275,1.05175 5.41714,2.26986 1.54494,0.64351 3.08511,1.30098 4.62977,1.94531 3.76528,1.73905 7.56427,3.38598 11.42162,4.85839 1.91575,0.74833 3.84558,1.45793 5.81207,2.02547 0.24013,0.22525 0.66747,0.11965 0.91448,0.34898 0.146,0.13556 0.26096,0.31671 0.34024,0.50849 0.31307,0.75727 0.1602,1.04145 -0.21396,1.6517 -1.56664,1.59563 -3.2394,3.05863 -4.85111,4.59837 -2.45202,2.30653 -4.72463,4.8263 -6.92003,7.42629 -1.90642,2.24394 -3.69669,4.61867 -5.30273,7.13598 -0.82205,1.2885 -1.57052,2.63919 -2.33041,3.97247 -1.42721,2.63525 -2.79143,5.3109 -4.19796,7.95956 -0.30219,0.57861 -0.60718,1.15523 -0.91213,1.73196 -0.0568,0.10746 -0.1146,0.2144 -0.16615,0.32506 -0.0357,0.0765 -0.0283,0.19174 -0.0952,0.2359 -3.53384,2.33554 -7.11315,4.58579 -10.66972,6.87869 -0.57029,-0.4713 -0.91528,-1.1686 -1.13492,-1.9031 -0.28445,-0.76756 -0.65492,-1.49203 -1.01643,-2.21752 -1.04336,-2.00406 -2.07935,-4.01054 -3.18748,-5.9732 -1.0703,-1.8285 -2.34223,-3.49221 -3.56428,-5.19428 -0.46848,-0.65251 -0.91674,-1.32281 -1.39309,-1.96828 -0.50593,-0.68558 -1.03965,-1.3455 -1.55317,-2.02414 -0.58609,-0.77454 -1.16373,-1.55689 -1.74559,-2.33532 -0.63446,-0.76797 -1.26306,-1.5419 -1.90335,-2.30393 -1.38933,-1.65348 -2.5207,-2.96134 -3.97694,-4.54167 -2.01147,-2.18288 -4.10418,-4.27655 -6.15582,-6.41277 -4.19899,-4.25943 -8.96434,-7.72965 -13.54075,-11.45458 -2.10711,-1.69743 -4.34299,-3.18047 -6.53499,-4.73531 -1.95033,-1.38341 -3.88416,-2.79285 -5.84278,-4.16228 -2.68537,-1.76292 -5.26986,-3.70288 -7.84227,-5.65871 -0.80357,-0.66272 -1.6984,-1.20456 -2.42885,-1.9695 0,0 10.45189,-7.01855 10.45189,-7.01855 v 0 c 0.52813,0.78765 1.19864,1.44948 1.83893,2.12111 2.21893,2.22581 4.65874,4.14176 7.08653,6.07601 1.5798,1.2381 2.01267,1.59408 3.65264,2.80833 0.67097,0.4968 1.35801,0.96696 2.02472,1.47076 2.13219,1.61117 4.18815,3.34674 6.34834,4.91373 0.75179,0.58439 1.51227,1.1553 2.25535,1.75313 3.86476,3.10933 7.53746,6.50903 11.19465,9.90663 0.764,0.71726 1.54508,1.41285 2.29202,2.1518 1.18076,1.16811 2.86145,3.02815 3.97352,4.27101 0.81402,0.90976 3.2143,3.64152 4.00762,4.56058 0.65393,0.75759 1.29915,1.52435 1.94871,2.28653 2.6583,2.94397 1.26173,1.33717 3.63303,4.18018 0.52308,0.62714 1.06289,1.23757 1.57188,1.87875 1.31485,1.65631 2.49751,3.4389 3.79284,5.11344 0.383,0.49242 0.7735,0.97782 1.14901,1.47725 0.78611,1.04556 0.8311,1.1805 1.5486,2.17827 0.34087,0.47401 0.71602,0.9176 1.04699,1.40012 0.11035,0.16086 0.20265,0.33595 0.30396,0.50393 0.44774,0.76848 0.88312,1.54744 1.30709,2.33106 0.0447,0.12333 0.0788,0.25141 0.12702,0.37307 0.0448,0.11318 0.12277,0.21103 0.11484,0.15349 -0.0241,-0.17381 -0.16578,-0.31198 -0.15729,-0.49792 -3.46196,2.24904 -6.92392,4.49808 -10.38589,6.74711 0.30802,-0.14957 0.26787,-0.0959 0.54153,-0.41506 0.47738,-0.55674 0.86398,-1.20725 1.26186,-1.83135 0.70818,-1.09903 1.42745,-2.19327 2.095,-3.32335 0.98342,-1.66475 1.89376,-3.38298 2.92098,-5.01649 2.21505,-3.8403 4.49489,-7.65399 7.16167,-11.13412 2.17968,-2.56584 4.38974,-5.11179 6.75243,-7.47252 1.38361,-1.40652 2.78584,-2.7904 4.1763,-4.18832 0.0823,-0.0558 0.36404,-0.29798 0.51446,-0.24084 0.11041,0.042 0.18346,0.15981 0.27463,0.24049 0.0452,0.04 0.18936,0.14209 0.1345,0.1216 -0.22527,-0.0841 -0.36447,-0.37259 -0.63009,-0.36975 -1.77163,-0.81582 -3.57168,-1.5548 -5.29241,-2.50206 -1.56212,-0.79006 -3.11775,-1.60157 -4.69008,-2.36634 -2.27508,-1.1066 -1.79432,-0.82799 -4.15562,-1.89762 -0.69989,-0.31704 -1.39522,-0.64632 -2.09281,-0.96949 -3.15711,-1.5709 -6.32435,-3.12987 -9.52446,-4.59099 -0.96543,-0.44079 -1.9442,-0.84551 -2.9068,-1.29379 -0.94221,-0.4388 -1.87128,-0.91139 -2.80693,-1.36708 -1.28342,-0.60419 -5.10638,-2.4103 -6.3624,-2.97529 -3.78709,-1.70349 -7.65613,-3.18323 -11.38901,-5.03356 -3.66734,-2.04003 -7.27795,-4.23141 -10.69601,-6.75185 -1.59819,-1.25632 -3.17903,-2.5225 -4.68604,-3.91241 -1.30677,-1.20525 -1.55883,-1.50127 -2.79833,-2.76499 -0.43144,-0.43984 -0.86403,-0.87826 -1.29606,-1.31741 -1.68076,-2.15261 -3.32482,-4.36957 -4.5299,-6.89783 -0.87516,-1.92559 -1.76316,-3.8582 -2.16389,-5.98685 -0.23635,-1.52692 -0.41972,-3.06744 -0.32844,-4.62063 0.0644,-1.26018 0.18,-2.51027 0.60563,-3.69552 0.51425,-1.23404 1.18079,-2.38824 2.15122,-3.24739 3.94299,-3.14125 0.80309,-0.67314 11.39709,-7.37268 1.07337,-0.67876 2.27952,-1.07723 3.43203,-1.54734 2.26848,-0.79095 4.55867,-1.50282 6.88946,-2.03521 2.54986,-0.6124 5.1059,-1.19468 7.68222,-1.656332 2.20928,-0.374981 4.42946,-0.695323 6.66797,-0.734165 1.78426,-0.04982 3.56911,-0.04454 5.35235,0.04982 1.43236,0.08523 2.8734,0.107088 4.29189,0.362724 1.17166,0.247245 2.34178,0.519674 3.47226,0.947893 1.03829,0.39423 2.05214,0.87595 3.0287,1.42996 0.86227,0.56536 1.74071,1.11053 2.48141,1.86958 0.69309,0.68827 1.33281,1.42937 1.92704,2.2235 0.59772,0.80531 1.17195,1.63255 1.64101,2.5391 0.5291,1.1069 1.00455,2.25854 1.30977,3.46662 0.32868,1.17935 0.56297,2.39589 0.60518,3.63299 0.0172,1.15937 0,2.32015 -0.0544,3.47815 -0.0918,1.18569 -0.24087,2.35653 -0.56963,3.49521 -0.27928,1.06516 -0.49679,2.15819 -0.92433,3.16632 -0.31962,0.85998 -0.70183,1.67823 -1.12219,2.48232 -0.23019,0.48686 -0.49468,0.96859 -0.77261,1.42504 -0.0511,0.084 -0.12411,0.153 -0.16277,0.24485 -0.0383,0.0907 -0.0421,0.19464 -0.0633,0.29196 0,0 -11.30753,5.47454 -11.30753,5.47454 z"
       inkscape:connector-curvature="0" />
    <flowRoot
       xml:space="preserve"
       id="flowRoot44"
       style="font-style:normal;font-variant:normal;font-weight:normal;font-stretch:normal;font-size:40px;line-height:1.25;font-family:'Radio Road';-inkscape-font-specification:'Radio Road';letter-spacing:0px;word-spacing:0px;fill:#000000;fill-opacity:1;stroke:none"><flowRegion
         id="flowRegion46"><rect
           id="rect48"
           width="6.0609155"
           height="488.91382"
           x="-2058.6909"
           y="-182.5974" /></flowRegion><flowPara
         id="flowPara50"></flowPara></flowRoot>  </g>
</svg>
